<?xml version="1.0" encoding="UTF-8"?>
<svg id="Layer_1" data-name="Layer 1" xmlns="http://www.w3.org/2000/svg" viewBox="0 0 400 400">
  <defs>
    <style>
      .cls-1 {
        opacity: .1;
      }

      .cls-1, .cls-2 {
        fill: #2584FF;
      }
    </style>
  </defs>
  <circle class="cls-1" cx="280.67" cy="119.67" r="119.64"/>
  <circle class="cls-1" cx="102.06" cy="261.19" r="101.75"/>
  <circle class="cls-1" cx="273.42" cy="323.76" r="76.27"/>
  <circle class="cls-1" cx="100.67" cy="100.25" r="52.14"/>
  <g>
    <path class="cls-2" d="m186.22,323.29l-58.92-58.92c-10.62-10.62-10.62-27.89,0-38.51,10.62-10.62,27.89-10.62,38.51,0l8.28,8.28v-98.65c-.3-13.68,9.77-25.36,23.43-27.08l.14-.02c14.22-1.28,26.84,9.24,28.13,23.47.07.81.11,1.63.11,2.44v62.22l54.38,7.73c12.82,1.81,22.4,12.95,22.27,25.9.04,31.18-7.34,62.44-21.34,90.35l-.09.17-.99,1.75-6.97-3.92.94-1.67c13.41-26.78,20.48-56.76,20.45-86.71.09-9-6.53-16.69-15.4-17.95l-61.26-8.7v-69.18c0-.57-.02-1.14-.07-1.7-.89-9.81-9.56-17.07-19.37-16.22-9.55,1.23-16.58,9.41-16.36,19.04v118.05s-21.94-21.94-21.94-21.94c-7.5-7.5-19.7-7.5-27.2,0-7.5,7.5-7.5,19.7,0,27.2l58.92,58.92-5.66,5.66Z"/>
    <path class="cls-2" d="m147.45,175.89l-.1-.1c-11.09-11.12-17.18-25.88-17.16-41.57.02-15.69,6.15-30.44,17.26-41.52l5.65,5.66c-9.6,9.57-14.89,22.31-14.91,35.87-.02,13.56,5.25,26.31,14.82,35.91l.09.09-5.66,5.66Z"/>
    <path class="cls-2" d="m119.86,191.88l-.02-.02c-15.38-15.38-23.84-35.83-23.84-57.58,0-21.75,8.48-42.2,23.86-57.57l5.66,5.66c-13.87,13.87-21.51,32.3-21.51,51.92,0,19.61,7.63,38.05,21.5,51.92l.12.12-2.57,2.35-3.2,3.2Z"/>
    <path class="cls-2" d="m252.54,175.89l-5.65-5.66c9.6-9.57,14.89-22.31,14.91-35.87.02-13.56-5.25-26.31-14.82-35.91l5.54-5.77.14.14c11.07,11.09,17.16,25.86,17.14,41.55-.02,15.69-6.15,30.44-17.26,41.52Z"/>
    <path class="cls-2" d="m280.14,191.88l-5.66-5.66c13.87-13.87,21.51-32.3,21.51-51.92,0-19.61-7.63-38.05-21.5-51.92l-.24-.27,2.94-2.45,2.82-3.08.14.14h0c15.38,15.38,23.84,35.82,23.84,57.57,0,21.75-8.48,42.2-23.86,57.57Z"/>
  </g>
</svg>