<?xml version="1.0" encoding="UTF-8"?>
<svg id="Layer_2" data-name="Layer 2" xmlns="http://www.w3.org/2000/svg" viewBox="0 0 144.82 106.05">
  <defs>
    <style>
      .cls-1, .cls-2 {
        fill: #fff;
      }

      .cls-2 {
        font-family: AvianoFutureRegular, 'Aviano Future';
        font-size: 30.46px;
      }

      .cls-3 {
        letter-spacing: -.07em;
      }

      .cls-4 {
        letter-spacing: 0em;
      }

      .cls-5 {
        letter-spacing: 0em;
      }
    </style>
  </defs>
  <g id="Layer_1-2" data-name="Layer 1">
    <text class="cls-2" transform="translate(0 98.77)"><tspan class="cls-5" x="0" y="0">e</tspan><tspan x="24.21" y="0">xpe</tspan><tspan class="cls-4" x="96.88" y="0">r</tspan><tspan class="cls-3" x="122.36" y="0">t</tspan></text>
    <path class="cls-1" d="m136.32,0H8.51C4.04,0,.41,3.62.41,8.09v55.81c0,4.47,3.62,8.09,8.09,8.09h41.57c2.71,0,5.23-1.35,6.74-3.6l3.46-5.19c5.77-8.66,18.5-8.66,24.27,0l3.46,5.19c1.5,2.25,4.03,3.6,6.74,3.6h41.57c4.47,0,8.09-3.62,8.09-8.09V8.09c0-4.47-3.62-8.09-8.09-8.09ZM55.84,50.11c-3.78.37-7.01.46-10.56.46s-6.78-.09-10.51-.46l-15.54-33.02h8.39l13.37,27.58c1.25.14,2.77.23,4.29.23s3.04-.09,4.33-.23l13.33-27.58h8.44l-15.54,33.02Zm57.26.18l-20.15-15.08v-1.01c3.41,0,6.59.05,9.64.05,4.1,0,7.98-.05,11.76-.28.28-2.03.42-4.01.42-6.09s-.14-3.6-.37-5.58c-4.93-.28-9.59-.37-14.89-.37s-9.68.05-14.53.23l-.05,28.13h-7.75V17.14c7.42-.32,14.89-.51,22.37-.51,6.87,0,15.26.32,22.27,1.29.6,3.18.97,6.13.97,9.36,0,3.69-.18,7.47-.97,11.39-4.1.23-8.81.6-13.28.6l14.62,11.02h-10.05Z"/>
  </g>
</svg>